<?xml version="1.0" encoding="UTF-8" standalone="no"?>
<!-- Created with Inkscape (http://www.inkscape.org/) -->

<svg
        xmlns:dc="http://purl.org/dc/elements/1.1/"
        xmlns:cc="http://creativecommons.org/ns#"
        xmlns:rdf="http://www.w3.org/1999/02/22-rdf-syntax-ns#"
        xmlns:svg="http://www.w3.org/2000/svg"
        xmlns="http://www.w3.org/2000/svg"
        xmlns:sodipodi="http://sodipodi.sourceforge.net/DTD/sodipodi-0.dtd"
        xmlns:inkscape="http://www.inkscape.org/namespaces/inkscape"
        version="1.1"
        id="svg866"
        width="524"
        height="524"
        viewBox="0 0 524 524"
        sodipodi:docname="logo.jpg.svg"
        inkscape:version="0.92.5 (2060ec1f9f, 2020-04-08)">
    <metadata
            id="metadata872">
        <rdf:RDF>
            <cc:Work
                    rdf:about="">
                <dc:format>image/svg+xml</dc:format>
                <dc:type
                        rdf:resource="http://purl.org/dc/dcmitype/StillImage"/>
                <dc:title></dc:title>
            </cc:Work>
        </rdf:RDF>
    </metadata>
    <defs
            id="defs870">
        <inkscape:path-effect
                effect="join_type"
                id="path-effect887"
                is_visible="true"
                linecap_type="butt"
                line_width="32"
                linejoin_type="extrp_arc"
                miter_limit="100"
                attempt_force_join="true"/>
    </defs>
    <sodipodi:namedview
            pagecolor="#ffffff"
            bordercolor="#666666"
            borderopacity="1"
            objecttolerance="10"
            gridtolerance="10"
            guidetolerance="10"
            inkscape:pageopacity="0"
            inkscape:pageshadow="2"
            inkscape:window-width="1920"
            inkscape:window-height="1016"
            id="namedview868"
            showgrid="false"
            inkscape:zoom="0.98428156"
            inkscape:cx="133.4271"
            inkscape:cy="212.11515"
            inkscape:window-x="0"
            inkscape:window-y="27"
            inkscape:window-maximized="1"
            inkscape:current-layer="svg866"/>
    <g
            id="g975"
            transform="matrix(0.76321271,0,0,0.76321271,-348.57016,320.00416)">
        <path
                inkscape:connector-curvature="0"
                id="rect893"
                d="m 680.71292,-371.00981 c -59.69434,0 -108.39843,48.70605 -108.39843,108.40039 v 201.09766 c 0,2.93733 0.12216,5.84695 0.35352,8.72656 -0.0423,0.28951 -0.0723,0.58318 -0.0723,0.88477 v 173.32226 c 0,1.50389 0.54844,2.87254 1.45118,3.92774 5.62122,52.41044 50.22208,93.42061 104.08789,93.49219 l 125.29296,0.16796 c 57.64791,0.077 102.05966,-47.1016 104.69142,-104.68945 l 0.41601,-9.10937 c 0,0 0.95066,-11.94314 0.24414,-21.31055 L 867.17189,82.9023 c 0.0771,8.88694 -0.0273,18.04506 -0.0273,27.30274 v 3.94726 c 0,35.88021 -28.25261,64.13086 -64.13282,64.13086 H 678.1348 c -35.88021,0 -64.13281,-28.25065 -64.13281,-64.13086 v -3.94726 c 0,-31.52409 21.81522,-57.14499 51.44531,-62.9043 v 87.66016 l 41.39453,-34.32032 42.67578,34.32032 V 46.88668 h 169.76954 c 59.69435,0 108.39835,-48.7041 108.39835,-108.39844 v -201.09766 c 0,-59.69434 -48.704,-108.40039 -108.39835,-108.40039 z m 0,41.4668 h 238.57422 c 37.43888,0 66.93164,29.49471 66.93164,66.93359 v 201.09766 c 0,37.43888 -29.49276,66.93164 -66.93164,66.93164 H 680.71292 c -37.43888,0 -66.93164,-29.49276 -66.93164,-66.93164 v -201.09766 c 0,-37.43888 29.49278,-66.93359 66.93164,-66.93359 z"
                style="color:#000000;font-style:normal;font-variant:normal;font-weight:normal;font-stretch:normal;font-size:medium;line-height:normal;font-family:sans-serif;font-variant-ligatures:normal;font-variant-position:normal;font-variant-caps:normal;font-variant-numeric:normal;font-variant-alternates:normal;font-feature-settings:normal;text-indent:0;text-align:start;text-decoration:none;text-decoration-line:none;text-decoration-style:solid;text-decoration-color:#000000;letter-spacing:normal;word-spacing:normal;text-transform:none;writing-mode:lr-tb;direction:ltr;text-orientation:mixed;dominant-baseline:auto;baseline-shift:baseline;text-anchor:start;white-space:normal;shape-padding:0;clip-rule:nonzero;display:inline;overflow:visible;visibility:visible;opacity:1;isolation:auto;mix-blend-mode:normal;color-interpolation:sRGB;color-interpolation-filters:linearRGB;solid-color:#000000;solid-opacity:1;vector-effect:none;fill:#f86d36;fill-opacity:1;fill-rule:nonzero;stroke:none;stroke-width:41.46701813;stroke-linecap:round;stroke-linejoin:round;stroke-miterlimit:4;stroke-dasharray:none;stroke-dashoffset:0;stroke-opacity:1;color-rendering:auto;image-rendering:auto;shape-rendering:auto;text-rendering:auto;enable-background:accumulate"/>
        <text
                id="text970"
                y="-104.09796"
                x="674.30988"
                style="font-style:normal;font-variant:normal;font-weight:normal;font-stretch:normal;font-size:219.73834229px;line-height:1.25;font-family:Yrsa;-inkscape-font-specification:'Yrsa, Normal';font-variant-ligatures:normal;font-variant-caps:normal;font-variant-numeric:normal;font-feature-settings:normal;text-align:start;letter-spacing:0px;word-spacing:0px;writing-mode:lr-tb;text-anchor:start;fill:#f86d36;fill-opacity:1;stroke:none;stroke-width:7.2108407"
                xml:space="preserve"><tspan
         style="fill:#f86d36;fill-opacity:1;stroke-width:7.2108407"
         y="-104.09796"
         x="674.30988"
         id="tspan968"
         sodipodi:role="line">XII</tspan></text>
    </g>
</svg>
